<svg width="73" height="118" viewBox="0 0 73 118" fill="none" xmlns="http://www.w3.org/2000/svg">
<g clip-path="url(#clip0_3_388)" filter="url(#filter0_d_3_388)">
<path d="M20.0719 51.101L37.2773 103.212L52.8113 51.101H20.0719Z" fill="#EA9B65"/>
<path d="M19.4036 52.1938L37.2331 106.389L53.4534 52.1938H19.4036Z" fill="#EA9B65"/>
<path d="M29.5404 87.9259C29.2929 87.9259 29.0454 87.8637 28.7967 87.7405C28.1163 87.3077 27.8688 86.4409 28.3017 85.6984L42.5981 61.6849C43.0309 61.0034 43.9599 60.7559 44.6403 61.1899C45.3206 61.6227 45.5693 62.4896 45.1353 63.2321L30.84 87.1834C30.5304 87.6162 30.0354 87.9259 29.5404 87.9259ZM24.1563 81.675C23.9088 81.675 23.6613 81.6128 23.4138 81.4885C22.7323 81.0556 22.4848 80.1888 22.9188 79.4463L37.2153 55.4328C37.6481 54.7525 38.5771 54.5038 39.2574 54.9378C39.9389 55.3706 40.1864 56.2375 39.7524 56.98L25.456 80.9935C25.2085 81.3653 24.7123 81.675 24.1563 81.675Z" fill="#B77142"/>
<path d="M45.1269 96.2524C44.6642 96.2524 44.2014 96.0049 43.9133 95.5099L22.2313 56.5807C21.8272 55.9003 22.058 54.9713 22.694 54.5385C23.3301 54.1057 24.197 54.3532 24.6023 55.0335L46.2831 93.9627C46.6872 94.6442 46.4564 95.5721 45.8204 96.0049C45.5896 96.1902 45.3576 96.2524 45.1269 96.2524ZM46.1097 86.35C45.647 86.35 45.1855 86.1025 44.8961 85.6063L26.3946 52.3098C25.9905 51.6295 26.2212 50.7004 26.8573 50.2676C27.4934 49.8348 28.3602 50.0811 28.7656 50.7626L47.3245 84.0591C47.7298 84.7395 47.4979 85.6685 46.863 86.1013C46.6298 86.2878 46.3405 86.35 46.1097 86.35ZM40.5595 98.9761C40.0968 98.9761 39.634 98.7286 39.3459 98.2324L22.9834 68.8349C22.5793 68.1546 22.81 67.2255 23.4461 66.7927C24.0822 66.3599 24.9502 66.6074 25.3544 67.2877L41.7157 96.6852C42.1198 97.3655 41.889 98.2946 41.253 98.7274C41.0222 98.9139 40.7914 98.9761 40.5595 98.9761Z" fill="#B77142"/>
<path d="M32.325 98.2001C32.0775 98.2001 31.83 98.1379 31.5825 98.0148C30.9021 97.582 30.6546 96.7151 31.0875 95.9726L47.6126 68.2454C48.0454 67.5639 48.9744 67.3164 49.6547 67.7504C50.3363 68.1833 50.5826 69.0501 50.1498 69.7926L33.6246 97.5198C33.315 97.9514 32.82 98.2001 32.325 98.2001Z" fill="#B77142"/>
<path d="M37.2762 110C34.3253 110 31.7344 108.138 30.8281 105.367L13.6226 53.252C12.9435 51.1572 13.301 48.8747 14.5803 47.1493C15.8059 45.3666 17.854 44.3145 20.0708 44.3145H52.8723C56.5812 44.3145 59.5978 47.3311 59.5978 51.04C59.5978 51.8327 59.4843 52.5776 59.2595 53.252L43.7818 105.134C42.9424 107.987 40.3765 109.94 37.3946 110H37.2762ZM37.2439 105.348L53.671 50.4625H19.1884L37.2439 105.348Z" fill="#4C2F1B"/>
<path d="M43.5892 63.293C39.5049 63.293 37.8333 61.0034 37.153 59.6415C36.3483 57.9712 36.3483 56.1753 36.3483 54.8756V54.566L33.8733 54.5038C33.749 54.5038 33.5637 54.5038 33.4405 54.4416C32.0165 54.9988 29.4171 55.8035 26.9421 55.8035C24.5281 55.8035 21.7434 54.8744 19.8866 54.1319H19.7013C16.2351 53.8844 13.6357 52.0276 12.6457 49.0576C10.7889 43.7967 14.7501 36.3084 16.3594 34.8222C17.6591 33.5847 19.7634 32.6556 23.0443 31.2328C24.0965 30.7378 25.7668 30.0563 26.758 29.5625C27.6249 20.5879 35.4229 13.7799 45.2631 13.7799C59.1889 13.7799 65.0057 23.4957 65.8104 31.8522C66.6772 40.7646 61.9736 51.3473 51.6993 53.3285C51.2665 53.3906 50.7715 53.4528 50.2131 53.5138C50.0888 53.5138 49.9656 53.5138 49.7803 53.576V55C49.8425 56.424 49.9046 59.4562 47.8625 61.5605C46.7457 62.7359 45.2607 63.293 43.5892 63.293Z" fill="white"/>
<path d="M43.5892 66.3671C39.4259 66.3671 36.0709 64.399 34.3851 60.9687C33.9546 60.0456 33.7227 59.1071 33.5696 58.3945L33.4238 57.7105L32.7554 57.9174C30.7276 58.5463 28.7189 58.8787 26.9421 58.8787C23.9267 58.8787 20.8324 57.8217 19.2577 57.1916L19.1752 57.1581L19.0867 57.1486C14.5528 56.6775 11.1392 54.1032 9.72116 50.0835C7.24736 43.0243 12.3086 34.3595 14.2539 32.572C16.0354 30.9088 18.7125 29.7538 21.8104 28.4171C22.0663 28.2903 22.3281 28.1803 22.6055 28.062C22.9427 27.9197 23.299 27.7666 23.6374 27.598L23.9183 27.457L23.9793 27.1485C25.878 17.4685 34.6051 10.7071 45.1986 10.7071C60.0545 10.7071 67.8 21.175 68.8856 31.5485C69.9641 43.2408 63.4251 53.576 53.3362 56.1131L52.8818 56.2279L52.8543 56.6966C52.6821 59.6284 51.7424 61.9898 50.0637 63.7151C48.4089 65.4261 46.1108 66.3671 43.5892 66.3671ZM39.2609 51.6761C39.4666 52.0898 39.4415 53.5521 39.4295 54.1965L39.4224 54.8147C39.4212 56.0306 39.4212 57.2909 39.9245 58.3418C40.5415 59.6296 41.7742 60.2824 43.5892 60.2824C44.4309 60.2824 45.1196 60.0122 45.635 59.4813C46.7481 58.3323 46.6883 56.3475 46.6513 55.1614L46.6417 54.7537V51.4728C46.6417 50.9073 48.7999 50.661 49.7217 50.5569C50.2406 50.4972 50.7189 50.4422 51.0836 50.3668C59.6014 48.724 63.431 39.7602 62.7053 32.1606C62.0309 25.1003 57.0403 16.8551 45.1974 16.8551C40.7758 16.8551 36.5946 18.5254 33.7263 21.4392C31.1544 24.0505 29.7711 27.5323 29.8284 31.2448C29.6264 31.8749 26.2857 33.3073 24.2902 34.1646C21.8534 35.2096 19.5518 36.1972 18.5247 37.1369C17.5096 38.0504 14.273 44.1769 15.5954 48.0736C16.0234 49.3374 17.1402 50.8929 20.0205 51.1189C20.3816 51.1715 20.7618 51.2253 21.1181 51.3784C21.4505 51.5266 24.5054 52.8526 27.0031 52.8526C29.3861 52.8526 32.0524 51.8351 32.5617 51.6318C32.6645 51.5984 33.0304 51.4919 33.4381 51.4919C33.5828 51.4919 33.7071 51.492 33.7956 51.5218L33.8853 51.5517L39.2609 51.6761Z" fill="#4C2F1B"/>
<path d="M40.557 34.5759C31.8922 34.5759 24.7756 27.5203 24.7756 18.7933C24.7756 10.0674 31.8312 3.01184 40.557 3.01184C49.2219 3.01184 56.3397 10.0674 56.3397 18.7933C56.3385 27.5203 49.2829 34.5759 40.557 34.5759Z" fill="#FF5F5F"/>
<path d="M40.5571 37.6499C30.1943 37.6499 21.7638 29.1906 21.7638 18.7933C21.7626 8.43054 30.1931 0 40.5571 0C50.921 0 59.3515 8.45924 59.3515 18.8566C59.3515 29.2193 50.9198 37.6499 40.5571 37.6499ZM40.5571 6.14804C33.5493 6.14804 27.8485 11.8202 27.8485 18.7933C27.8485 25.801 33.5493 31.5018 40.5571 31.5018C47.5648 31.5018 53.2656 25.8285 53.2656 18.8554C53.2656 11.8489 47.5636 6.14804 40.5571 6.14804Z" fill="#4C2F1B"/>
<path d="M26.8788 21.8266C26.8788 22.3396 27.2949 22.7545 27.8078 22.7545C28.3207 22.7545 28.7368 22.3384 28.7368 21.8266C28.7368 21.3137 28.3207 20.8976 27.8078 20.8976C27.2949 20.8976 26.8788 21.3149 26.8788 21.8266Z" fill="#FF8585"/>
<path d="M32.2628 16.5048C32.0775 16.5048 31.8921 16.4426 31.7068 16.3804C30.9631 16.0708 30.5925 15.2051 30.9021 14.4614C31.8921 12.0474 35.668 7.65338 43.2185 8.5824C44.0232 8.70555 44.5804 9.44925 44.5182 10.2539C44.3951 11.0586 43.6514 11.6158 42.8467 11.5536C35.7912 10.6867 33.749 15.3904 33.6246 15.577C33.4393 16.1951 32.8821 16.5048 32.2628 16.5048Z" fill="white"/>
<path d="M23.0419 44.5404C14.2539 44.5404 7.07397 37.3617 7.07397 28.5725C7.07397 19.7832 14.2539 12.6046 23.0419 12.6046C31.83 12.6046 39.0098 19.7832 39.0098 28.5725C39.0098 37.3617 31.83 44.5404 23.0419 44.5404Z" fill="#FFED69"/>
<path d="M23.042 47.6145C12.5417 47.6145 4 39.0727 4 28.5725C4 18.0723 12.5417 9.53174 23.042 9.53174C33.541 9.53174 42.0827 18.0735 42.0827 28.5737C42.0827 39.0739 33.541 47.6145 23.042 47.6145ZM23.042 15.6798C15.9326 15.6798 10.148 21.4632 10.148 28.5737C10.148 35.6842 15.9314 41.4676 23.042 41.4676C30.1525 41.4676 35.9359 35.683 35.9359 28.5725C35.9359 21.462 30.1513 15.6798 23.042 15.6798Z" fill="#4C2F1B"/>
<path d="M14.5002 26.9022C14.3149 26.9022 14.1283 26.84 13.943 26.7778C13.1993 26.4682 12.8287 25.6025 13.1383 24.8588C14.1283 22.4448 17.9042 18.0508 25.4548 18.9798C26.2594 19.1041 26.8166 19.8466 26.7544 20.6513C26.6301 21.456 25.8876 22.0132 25.0841 21.951C18.0286 21.0841 15.9864 25.7878 15.862 25.9744C15.6145 26.5925 15.0574 26.9022 14.5002 26.9022Z" fill="white"/>
<path d="M27.5591 21.7644C27.5591 22.5847 28.2239 23.2506 29.0453 23.2506C29.8655 23.2506 30.5303 22.5859 30.5303 21.7644C30.5303 20.9442 29.8655 20.2794 29.0453 20.2794C28.2251 20.2794 27.5591 20.9454 27.5591 21.7644Z" fill="white"/>
</g>
<defs>
<filter id="filter0_d_3_388" x="0" y="0" width="73.0016" height="118" filterUnits="userSpaceOnUse" color-interpolation-filters="sRGB">
<feFlood flood-opacity="0" result="BackgroundImageFix"/>
<feColorMatrix in="SourceAlpha" type="matrix" values="0 0 0 0 0 0 0 0 0 0 0 0 0 0 0 0 0 0 127 0" result="hardAlpha"/>
<feOffset dy="4"/>
<feGaussianBlur stdDeviation="2"/>
<feComposite in2="hardAlpha" operator="out"/>
<feColorMatrix type="matrix" values="0 0 0 0 0 0 0 0 0 0 0 0 0 0 0 0 0 0 0.25 0"/>
<feBlend mode="normal" in2="BackgroundImageFix" result="effect1_dropShadow_3_388"/>
<feBlend mode="normal" in="SourceGraphic" in2="effect1_dropShadow_3_388" result="shape"/>
</filter>
<clipPath id="clip0_3_388">
<rect width="65.0016" height="110" fill="white" transform="translate(4)"/>
</clipPath>
</defs>
</svg>
